<?xml version="1.0" standalone="no"?>
<!DOCTYPE svg PUBLIC "-//W3C//DTD SVG 20010904//EN"
 "http://www.w3.org/TR/2001/REC-SVG-20010904/DTD/svg10.dtd">
<svg version="1.0" xmlns="http://www.w3.org/2000/svg"
 width="517.000000pt" height="80.000000pt" viewBox="0 0 517.000000 80.000000"
 preserveAspectRatio="xMidYMid meet">
<metadata>
Created by potrace 1.16, written by Peter Selinger 2001-2019
</metadata>
<g transform="translate(0.000000,80.000000) scale(0.100000,-0.100000)"
fill="#000000" stroke="none">
<path d="M0 400 l0 -400 2585 0 2585 0 0 400 0 400 -2585 0 -2585 0 0 -400z
m1448 245 c43 -19 79 -50 98 -87 21 -40 17 -55 -15 -61 -16 -3 -40 -9 -55 -13
-18 -4 -26 -2 -26 7 0 7 -12 26 -27 41 -21 22 -36 28 -71 28 -85 0 -136 -89
-117 -203 10 -60 31 -94 66 -113 57 -29 122 1 148 68 l10 27 50 -17 c55 -17
59 -26 35 -75 -42 -82 -97 -110 -205 -105 -67 3 -83 7 -121 33 -24 17 -54 51
-68 75 -22 40 -25 57 -25 145 0 111 15 153 73 208 57 54 173 74 250 42z m492
-3 c42 -21 80 -75 80 -113 0 -28 -1 -29 -55 -29 -36 0 -55 4 -55 12 0 6 -10
22 -22 35 -37 39 -138 27 -138 -17 0 -26 32 -45 109 -65 103 -26 140 -49 163
-102 36 -82 1 -176 -79 -209 -42 -18 -174 -18 -216 0 -42 17 -83 66 -98 117
-7 21 -10 41 -8 43 2 2 27 6 55 9 50 6 51 6 63 -29 21 -57 91 -80 150 -49 68
35 43 84 -56 109 -151 40 -200 85 -191 177 6 55 33 92 83 115 45 20 172 18
215 -4z m1508 3 c43 -19 79 -50 98 -87 21 -40 17 -55 -15 -61 -16 -3 -40 -9
-55 -13 -18 -4 -26 -2 -26 7 0 7 -12 26 -27 41 -21 22 -36 28 -71 28 -85 0
-136 -89 -117 -203 10 -60 31 -94 66 -113 57 -29 122 1 148 68 l10 27 50 -17
c55 -17 59 -26 35 -75 -42 -82 -97 -110 -205 -105 -67 3 -83 7 -121 33 -24 17
-54 51 -68 75 -22 40 -25 57 -25 145 0 111 15 153 73 208 57 54 173 74 250 42z
m513 4 c90 -27 149 -110 157 -221 9 -127 -31 -215 -119 -263 -46 -25 -58 -27
-139 -23 -79 3 -93 6 -132 33 -65 45 -98 117 -98 214 0 42 4 91 10 110 19 69
80 131 146 151 42 12 131 12 175 -1z m-3221 -182 c0 -168 2 -185 20 -204 25
-28 54 -36 96 -29 59 12 64 29 64 233 l0 183 55 0 55 0 0 -195 c0 -219 -6
-246 -61 -286 -29 -21 -47 -24 -129 -27 -84 -2 -100 0 -134 20 -70 41 -76 65
-76 290 l0 198 55 0 55 0 0 -183z m1490 0 c0 -168 2 -185 20 -204 25 -28 54
-36 96 -29 59 12 64 29 64 233 l0 183 55 0 55 0 0 -195 c0 -219 -6 -246 -61
-286 -29 -21 -47 -24 -129 -27 -84 -2 -100 0 -134 20 -70 41 -76 65 -76 290
l0 198 55 0 55 0 0 -183z m746 167 c44 -21 67 -65 68 -127 0 -55 -23 -92 -77
-123 l-37 -20 25 -20 c13 -10 49 -58 79 -106 l56 -88 -69 0 -68 0 -52 79 c-62
95 -86 117 -128 123 l-33 5 0 -104 0 -103 -55 0 -55 0 0 250 0 250 156 0 c124
0 163 -3 190 -16z m1418 -141 l96 -157 0 157 0 157 50 0 50 0 0 -250 0 -250
-54 0 -55 0 -93 149 -93 150 -3 -150 -3 -149 -49 0 -50 0 0 250 0 250 54 0 54
0 96 -157z m656 112 l0 -45 -120 0 -120 0 0 -55 0 -55 105 0 105 0 0 -45 0
-45 -105 0 -105 0 0 -105 0 -105 -55 0 -55 0 0 250 0 250 175 0 175 0 0 -45z"/>
<path d="M3791 534 c-34 -28 -51 -76 -51 -144 0 -91 68 -167 143 -157 82 11
121 64 121 167 0 109 -44 160 -138 160 -33 0 -52 -6 -75 -26z"/>
<path d="M2740 500 l0 -60 43 0 c62 1 128 16 138 31 14 23 10 55 -9 72 -14 13
-38 17 -95 17 l-77 0 0 -60z"/>
</g>
</svg>
